# xmcd
#
# Track frame offsets: 
#        150
#        58945
#        74534
#        84832
#        100869
#        110231
#        146231
#        160809
#        167705
#        202833
#        217472
#        249718
#        260296
#        278338
#
# Disc length: 3960 seconds
#
# Revision: 0
# Processed by: cddbd v1.5.1PL0 Copyright (c) Steve Scherf et al.
# Submitted via: ExactAudioCopy v0.90b4
#
DISCID=d40f760e
DTITLE=projectZytanne - Abstractions of a Sleeping Bee`s Dream
DYEAR=2001
DGENRE=Electronic
TTITLE0=Adollsengrouv
TTITLE1=pooq
TTITLE2=Bbles
TTITLE3=Horllin
TTITLE4=Cole
TTITLE5=Slaping
TTITLE6=Huney and Moans
TTITLE7=Going Furer
TTITLE8=Mr Flip
TTITLE9=Going Down
TTITLE10=Cuosing a Seet
TTITLE11=Joon
TTITLE12=Abacts
TTITLE13=Siyle
EXTD=
EXTT0=
EXTT1=
EXTT2=
EXTT3=
EXTT4=
EXTT5=
EXTT6=
EXTT7=
EXTT8=
EXTT9=
EXTT10=
EXTT11=
EXTT12=
EXTT13=
PLAYORDER=
